<svg id="Layer_1" data-name="Layer 1" xmlns="http://www.w3.org/2000/svg" viewBox="0 0 32 32"><defs><style>.cls-1{fill:#ff1616;}.cls-2{fill:#fff;}</style></defs><title>OceanBitesFavicon</title><path class="cls-1" d="M16,0A16,16,0,1,0,32,16,16,16,0,0,0,16,0Zm7.2,22.06a1.06,1.06,0,0,1-.11.21,7.72,7.72,0,0,1-7,4.55c-3.83,0-6.46-2.5-7.7-5.95a13.45,13.45,0,0,1-.54-2A15.23,15.23,0,0,1,7.54,16a12.29,12.29,0,0,1,.08-1.49h0a11,11,0,0,1,.15-1.17c.8-4.54,3.66-8.2,8.28-8.2,5.45,0,8.48,5.18,8.48,10.87A13.84,13.84,0,0,1,23.2,22.06Z"/><path class="cls-2" d="M16.05,4.57c-4.65,0-8.54,1.91-10.7,5.14a10.09,10.09,0,0,0-1,2A11.5,11.5,0,0,0,3.53,16,12,12,0,0,0,3.91,19a10.36,10.36,0,0,0,1.14,2.73c2.08,3.51,6.13,5.6,11,5.6,7.1,0,12.5-4.5,12.5-11.38S23.15,4.57,16.05,4.57ZM23.2,22.06a1.06,1.06,0,0,1-.11.21,7.72,7.72,0,0,1-7,4.55c-3.83,0-6.46-2.5-7.7-5.95a13.45,13.45,0,0,1-.54-2A15.23,15.23,0,0,1,7.54,16a12.29,12.29,0,0,1,.08-1.49h0a11,11,0,0,1,.15-1.17c.8-4.54,3.66-8.2,8.28-8.2,5.45,0,8.48,5.18,8.48,10.87A13.84,13.84,0,0,1,23.2,22.06Z"/><path class="cls-1" d="M24.53,16a13.84,13.84,0,0,1-1.33,6.11,1.06,1.06,0,0,1-.11.21,7.72,7.72,0,0,1-7,4.55c-3.83,0-6.46-2.5-7.7-5.95a13.45,13.45,0,0,1-.54-2A15.23,15.23,0,0,1,7.54,16a12.29,12.29,0,0,1,.08-1.49h0a11,11,0,0,1,.15-1.17c.8-4.54,3.66-8.2,8.28-8.2C21.5,5.08,24.53,10.26,24.53,16Z"/></svg>